<svg xmlns="http://www.w3.org/2000/svg" viewBox="0 0 1607.8054 350.90576"><defs><style>.cls-1{fill:#111;}.cls-2{fill:#fdfdfd;}.cls-3{fill:none;stroke:#000;stroke-miterlimit:10;stroke-width:3px;}</style></defs><g id="Layer_2" data-name="Layer 2"><g id="Layer_1-2" data-name="Layer 1"><path d="M301.59927,259.51367q-14.748-6.52-22.8164-18.31543a51.08649,51.08649,0,0,1-7.76075-33.21582h21.41944a39.27186,39.27186,0,0,0,3.56982,19.0918q4.19093,9.15966,14.59033,15.21094,10.39674,6.05273,26.85157,6.05273,22.96947,0,36.63037-11.48535,13.656-11.48145,13.65869-31.043,0-11.79345-6.36377-19.71191a52.05338,52.05338,0,0,0-15.67627-13.03809A246.50556,246.50556,0,0,0,340.24722,161.419q-18.93824-7.4502-30.11133-13.814a53.35643,53.35643,0,0,1-18.47021-17.53906q-7.29786-11.1753-6.05371-28.55908a52.10949,52.10949,0,0,1,10.08887-29.646q9.46581-12.87744,25.76562-20.17773,16.29713-7.28981,37.0957-7.29493,20.488,0,35.2334,6.98487,14.74072,6.98438,22.04053,19.09082a44.99939,44.99939,0,0,1,6.36328,26.69677H399.53824A28.912,28.912,0,0,0,395.65835,80.708q-4.50366-8.06836-14.27978-13.19287Q371.6,62.39258,357.32046,62.39307q-22.04516,0-36.00927,10.70947-13.96949,10.71021-13.96924,29.0249,0,10.86987,6.20849,18.31494a52.56665,52.56665,0,0,0,15.21094,12.41748,252.398,252.398,0,0,0,24.834,11.48535,249.60914,249.60914,0,0,1,29.646,13.96924,61.722,61.722,0,0,1,19.2461,17.38379q7.916,10.87061,7.916,27.31738a47.46766,47.46766,0,0,1-.31055,6.209,56.39652,56.39652,0,0,1-10.55468,28.86914q-9.31275,13.03857-25.60987,20.48828-16.29711,7.4502-38.02734,7.4502Q316.34463,266.03223,301.59927,259.51367Z" transform="translate(0 -44.38818)"/><path d="M491.11246,155.21045,574.3063,263.85938H545.74722L469.38248,163.5918,451.68814,263.85938H429.95865l38.18213-216.9878h21.73L471.86587,148.69141,584.2399,46.87158h27.62793Z" transform="translate(0 -44.38818)"/><path d="M781.98013,46.87158,688.85171,179.42383l-14.90039,84.43555h-21.73l14.90039-84.43555-46.564-132.55225h24.52392l36.31983,112.68506,76.0542-112.68506Z" transform="translate(0 -44.38818)"/><path d="M799.98306,246.78613h77.917l-3.10351,17.07325H775.14908l38.18261-216.9878h21.7295Z" transform="translate(0 -44.38818)"/><path d="M965.74673,46.87158l-38.18164,216.9878H905.83462l38.18262-216.9878Z" transform="translate(0 -44.38818)"/><path d="M1140.51334,263.85938h-21.7295L1030.93326,81.3291,998.64908,263.85938H976.91861l38.18262-216.9878h21.72949l88.16113,182.22022,31.97363-182.22022H1178.696Z" transform="translate(0 -44.38818)"/><path d="M1246.67642,63.94531l-14.28027,81.95215h82.26269l-2.793,17.38379h-82.57324l-14.59082,83.19434H1306.278l-3.10449,17.38379H1189.86783L1228.05044,46.561h113.61622l-3.415,17.38427Z" transform="translate(0 -44.38818)"/><path d="M588.43228,385.37988q-.13331,3.70167.793,5.02344a3.44439,3.44439,0,0,0,3.04053,1.32129,12.21669,12.21669,0,0,0,4.56054-.92481,19.35253,19.35253,0,0,0,4.42823-2.51171l1.18994,1.58593a41.89765,41.89765,0,0,1-3.56934,2.71,16.33232,16.33232,0,0,1-4.03174,1.9834,14.79374,14.79374,0,0,1-4.69287.72657,9.23223,9.23223,0,0,1-5.02344-1.25586,6.11461,6.11461,0,0,1-2.64355-3.833,22.976,22.976,0,0,1-.52881-6.41211l1.85059-31.8584h-.39649l-4.3623,18.375a69.5268,69.5268,0,0,1-2.97461,9.71582,35.44006,35.44006,0,0,1-4.23,7.93164,19.17833,19.17833,0,0,1-5.81641,5.35449,14.97173,14.97173,0,0,1-7.7334,1.98243q-7.00854,0-11.36865-4.03223a22.71658,22.71658,0,0,1-6.2793-10.64063,51.04526,51.04526,0,0,1-1.9165-14.27734,58.52026,58.52026,0,0,1,2.3794-17.251,42.173,42.173,0,0,1,6.54345-13.21972,29.69993,29.69993,0,0,1,9.78223-8.46,24.941,24.941,0,0,1,11.83154-2.97461,31.26029,31.26029,0,0,1,8.6582,1.124,51.729,51.729,0,0,1,7.33692,2.71l4.23-2.64355,1.05762.66015Zm-29.08252,4.75879a13.068,13.068,0,0,0,6.2793-1.4541,14.11021,14.11021,0,0,0,5.023-5.15527,48.35253,48.35253,0,0,0,4.49463-10.44336q2.18115-6.74268,4.56054-16.9209l5.68457-24.58789a38.34109,38.34109,0,0,0-7.93164-3.3711,31.2694,31.2694,0,0,0-8.32812-.99121,18.6389,18.6389,0,0,0-9.25342,2.44532,21.5223,21.5223,0,0,0-7.46924,7.20507,39.02977,39.02977,0,0,0-4.89111,11.83106,67.09612,67.09612,0,0,0-1.78418,16.32519,54.7506,54.7506,0,0,0,1.52,14.14551q1.5183,5.55176,4.56054,8.26172A10.90462,10.90462,0,0,0,559.34976,390.13867Z" transform="translate(0 -44.38818)"/><path d="M655.85123,385.51172q-.13331,3.56982.793,4.82519a3.5191,3.5191,0,0,0,3.04053,1.25586,14.25251,14.25251,0,0,0,4.49463-.793,13.11527,13.11527,0,0,0,4.49414-2.64453l1.32227,1.85157a30.63474,30.63474,0,0,1-3.63526,2.64355,19.39966,19.39966,0,0,1-4.09814,1.917,14.79374,14.79374,0,0,1-4.69287.72657q-4.89184,0-6.60987-2.97461-1.719-2.97365-1.58593-8.65821l1.85058-31.59375h-.39648l-4.23047,17.58106a65.113,65.113,0,0,1-3.04,10.24511,36.55354,36.55354,0,0,1-4.29639,8.06348,19.17818,19.17818,0,0,1-5.8164,5.35449,14.97176,14.97176,0,0,1-7.7334,1.98243A16.52509,16.52509,0,0,1,616.59,392.915a18.12124,18.12124,0,0,1-6.01514-6.47754,30.28772,30.28772,0,0,1-3.30469-9.32031,57.61842,57.61842,0,0,1-.99121-10.77344,61.20029,61.20029,0,0,1,2.37939-17.8457,39.61834,39.61834,0,0,1,6.54346-13.08692,29.35786,29.35786,0,0,1,9.71631-8.12988,25.46618,25.46618,0,0,1,11.76514-2.84277,30.35373,30.35373,0,0,1,8.32812,1.05761q3.69873,1.06055,6.477,2.11524l1.18994-31.8584-11.104-2.24707.13184-1.4541H657.966l1.05762,1.05762Zm-29.08252,4.62695a12.88849,12.88849,0,0,0,6.41113-1.52051,14.95665,14.95665,0,0,0,5.08935-5.35351,47.16233,47.16233,0,0,0,4.49463-10.6416q2.113-6.80713,4.49463-17.251l5.55225-23.79492a39.40907,39.40907,0,0,0-5.48633-2.51172,31.79141,31.79141,0,0,0-5.22119-1.3877,33.09964,33.09964,0,0,0-5.68457-.46289,18.03589,18.03589,0,0,0-9.05518,2.44532,22.30521,22.30521,0,0,0-7.46875,7.20507,38.00967,38.00967,0,0,0-4.95752,11.76465,66.90823,66.90823,0,0,0-1.78418,16.3916q0,12.69141,3.437,18.9043Q620.02578,390.14112,626.76871,390.13867Z" transform="translate(0 -44.38818)"/><path d="M672.24185,329.33008a24.56659,24.56659,0,0,1,3.437-2.31348,22.24331,22.24331,0,0,1,4.29639-1.85058,15.18248,15.18248,0,0,1,4.56055-.72754q4.09569,0,6.01464,2.37988,1.91456,2.37891,1.52051,7.79883l-3.437,42.03808q-.53028,7.667,1.3877,10.83985a6.63976,6.63976,0,0,0,6.147,3.17187,11.138,11.138,0,0,0,5.28808-1.25586,12.98462,12.98462,0,0,0,4.62647-5.02343,61.27382,61.27382,0,0,0,4.75879-11.16993l15.4668-46.92871h3.437l-2.24756,60.01563a7.67344,7.67344,0,0,0,.727,4.3623,3.13138,3.13138,0,0,0,2.84228,1.32227,13.24638,13.24638,0,0,0,3.76758-.66114q2.1797-.65918,5.08985-1.85058l.793,1.58594q-1.32422.79393-2.77539,1.58691a24.08826,24.08826,0,0,1-3.041,1.3877,21.09762,21.09762,0,0,1-3.23926.92578,17.97347,17.97347,0,0,1-3.50293.33008q-4.89184,0-6.2793-3.30469-1.38793-3.30323-.85888-9.1211l2.77588-39.39355-.26465-.13184L713.35367,374.54a63.86842,63.86842,0,0,1-4.957,12.22754,17.54,17.54,0,0,1-5.81641,6.54394,14.537,14.537,0,0,1-7.7334,1.98243q-8.06469,0-10.6416-5.41993-2.57739-5.41845-1.9165-14.01269l3.437-41.9043a7.92569,7.92569,0,0,0-.52881-4.42871q-.79321-1.38867-3.17285-1.3877a12.9661,12.9661,0,0,0-4.23.72657,28.41336,28.41336,0,0,0-4.49463,2.04883Z" transform="translate(0 -44.38818)"/><path d="M754.862,295.75293,743.758,293.374l.13184-1.32226h16.12842l1.18945,1.05762-3.96582,92.53417a9.15926,9.15926,0,0,0,.59473,4.36329q.7251,1.456,3.10644,1.4541a14.10237,14.10237,0,0,0,4.23047-.66114,21.07059,21.07059,0,0,0,4.36231-1.98339l1.05761,1.58691a26.42523,26.42523,0,0,1-3.37109,2.3125,20.60011,20.60011,0,0,1-4.23047,1.85156,16.04388,16.04388,0,0,1-4.82422.72657,7.38294,7.38294,0,0,1-4.56152-1.25586,6.57392,6.57392,0,0,1-2.3125-3.56934,17.95146,17.95146,0,0,1-.5293-5.61816Z" transform="translate(0 -44.38818)"/><path d="M775.6149,327.21484l10.708-1.18945,5.02343-19.30078h1.98242l-1.05761,19.56445h21.415l-.13184,2.90821h-21.415l-2.24707,49.44043q-.26659,6.082,1.65235,9.45214,1.91454,3.37061,7.60058,3.3711a17.08168,17.08168,0,0,0,7.86524-1.78516,23.99013,23.99013,0,0,0,6.67578-5.22168l1.32226,1.4541a27.09986,27.09986,0,0,1-4.56054,4.957,18.47125,18.47125,0,0,1-5.68457,3.30567,19.52777,19.52777,0,0,1-6.67579,1.123q-8.59423,0-11.83105-4.69239-3.24024-4.69189-2.71-14.60742l2.37988-46.79687H775.6149Z" transform="translate(0 -44.38818)"/><path d="M871.58365,324.43848a23.23471,23.23471,0,0,1,9.78222,1.78515,13.64035,13.64035,0,0,1,5.68457,4.49414,9.84614,9.84614,0,0,1,1.85059,5.61817,6.21473,6.21473,0,0,1-1.4541,4.3623,4.80365,4.80365,0,0,1-3.70117,1.58692,5.786,5.786,0,0,1-3.041-.79395,6.06531,6.06531,0,0,1-2.11523-2.11426l1.4541-2.51172q1.7168-2.90625,1.124-5.08984a5.48443,5.48443,0,0,0-3.17285-3.43652,15.653,15.653,0,0,0-6.80762-1.25586,16.90724,16.90724,0,0,0-8.791,2.31347,20.50576,20.50576,0,0,0-6.74121,6.74122,34.7679,34.7679,0,0,0-4.36328,11.30273,75.40547,75.40547,0,0,0-1.51954,16.127,52.92186,52.92186,0,0,0,1.98243,15.59961q1.98339,6.34423,6.01464,9.45117a16.07114,16.07114,0,0,0,10.11329,3.10645,23.40357,23.40357,0,0,0,6.27929-.85938,20.256,20.256,0,0,0,6.21289-3.04,33.60877,33.60877,0,0,0,6.14649-5.75l1.58691,1.4541a52.47385,52.47385,0,0,1-4.29687,4.56054,27.76993,27.76993,0,0,1-5.02344,3.76758,26.04828,26.04828,0,0,1-5.88184,2.51172,25.54709,25.54709,0,0,1-7.13867.92481q-7.93212,0-13.02051-4.2959a24.838,24.838,0,0,1-7.46972-11.43457,49.07244,49.07244,0,0,1-2.37891-15.59864,63.18764,63.18764,0,0,1,1.917-16.12793,36.648,36.648,0,0,1,5.75-12.49218,27.32413,27.32413,0,0,1,9.1211-8.06348A24.72178,24.72178,0,0,1,871.58365,324.43848Z" transform="translate(0 -44.38818)"/><path d="M946.53775,385.37988q-.1333,3.70167.793,5.02344a3.444,3.444,0,0,0,3.04,1.32129,12.21478,12.21478,0,0,0,4.56054-.92481,19.345,19.345,0,0,0,4.42871-2.51171l1.18946,1.58593a41.88349,41.88349,0,0,1-3.56836,2.71,16.344,16.344,0,0,1-4.03223,1.9834,14.79068,14.79068,0,0,1-4.69238.72657,9.22992,9.22992,0,0,1-5.02344-1.25586,6.11585,6.11585,0,0,1-2.64453-3.833,23.01473,23.01473,0,0,1-.52832-6.41211l1.85059-31.8584h-.39649l-4.3623,18.375a69.5268,69.5268,0,0,1-2.97461,9.71582,35.42131,35.42131,0,0,1-4.23047,7.93164,19.15575,19.15575,0,0,1-5.81641,5.35449,14.968,14.968,0,0,1-7.7334,1.98243q-7.00781,0-11.36816-4.03223a22.71256,22.71256,0,0,1-6.2793-10.64063,51.04507,51.04507,0,0,1-1.917-14.27734,58.53635,58.53635,0,0,1,2.37988-17.251,42.1529,42.1529,0,0,1,6.54395-13.21972,29.68534,29.68534,0,0,1,9.78223-8.46,24.93621,24.93621,0,0,1,11.83105-2.97461,31.26029,31.26029,0,0,1,8.6582,1.124,51.75131,51.75131,0,0,1,7.33692,2.71l4.23047-2.64355,1.05761.66015Zm-29.083,4.75879a13.064,13.064,0,0,0,6.2793-1.4541,14.10729,14.10729,0,0,0,5.02344-5.15527,48.34983,48.34983,0,0,0,4.49511-10.44336q2.18115-6.74268,4.56055-16.9209l5.68359-24.58789a38.33,38.33,0,0,0-7.93164-3.3711,31.26428,31.26428,0,0,0-8.32812-.99121,18.63979,18.63979,0,0,0-9.25293,2.44532,21.51679,21.51679,0,0,0-7.46875,7.20507,39.01751,39.01751,0,0,0-4.8916,11.83106,67.09612,67.09612,0,0,0-1.78418,16.32519A54.77464,54.77464,0,0,0,905.359,379.167q1.519,5.55176,4.56152,8.26172A10.90043,10.90043,0,0,0,917.45474,390.13867Z" transform="translate(0 -44.38818)"/><path d="M974.95767,333.42773a8.21858,8.21858,0,0,0-.66016-4.3623,3.11289,3.11289,0,0,0-2.9082-1.32227,13.93548,13.93548,0,0,0-3.70215.59571,36.27084,36.27084,0,0,0-5.02343,1.916l-.92481-1.58593a30.20816,30.20816,0,0,1,3.89942-2.11524,28.7096,28.7096,0,0,1,4.23046-1.52051,16.75328,16.75328,0,0,1,4.42871-.59472q4.75782,0,6.27833,3.10644,1.519,3.10841.85937,9.32031l-3.30469,33.3125h.39649l10.708-30.66894a46.43319,46.43319,0,0,1,4.23047-9.25391,12.70355,12.70355,0,0,1,4.49414-4.56054,10.37088,10.37088,0,0,1,4.89161-1.25586,8.489,8.489,0,0,1,3.56836.72754,5.649,5.649,0,0,1,2.44628,2.04882,5.88573,5.88573,0,0,1,.06543,6.01465,8.44569,8.44569,0,0,1-1.98242,2.18164l-1.85058-1.71875a10.41944,10.41944,0,0,0-2.64454-1.78515,6.40253,6.40253,0,0,0-2.64355-.59473,6.902,6.902,0,0,0-2.18066.33105,3.99727,3.99727,0,0,0-1.85157,1.45411,20.976,20.976,0,0,0-1.85058,3.04,41.88114,41.88114,0,0,0-2.04883,4.82519q-3.56836,9.65038-6.08106,16.32617-2.5122,6.67676-4.16406,11.30176-1.65381,4.62891-2.51172,7.93164A50.60475,50.60475,0,0,0,977.86587,383l-1.05664,10.44336h-4.23047Z" transform="translate(0 -44.38818)"/><path d="M1039.33755,324.43848q8.19433,0,12.22754,4.03222a14.39106,14.39106,0,0,1,4.03223,10.6416,13.91008,13.91008,0,0,1-1.71875,7.07227,17.93169,17.93169,0,0,1-4.627,5.22168,28.7999,28.7999,0,0,1-6.80762,3.833q-3.90089,1.58643-8.2627,2.9082l-16.52343,4.49512a58.80862,58.80862,0,0,0,1.917,16.3916q1.91456,6.479,6.01465,9.584a16.13615,16.13615,0,0,0,10.0459,3.10645,25.56406,25.56406,0,0,0,6.47753-.793,19.89437,19.89437,0,0,0,6.08106-2.8418,26.78207,26.78207,0,0,0,5.94922-5.751l1.71777,1.4541a32.89421,32.89421,0,0,1-4.16406,4.42871,33.30837,33.30837,0,0,1-4.957,3.63574,24.7425,24.7425,0,0,1-5.81641,2.51172,25.54221,25.54221,0,0,1-7.13867.92481q-8.064,0-13.15234-4.2959a24.83793,24.83793,0,0,1-7.46973-11.43457,49.07244,49.07244,0,0,1-2.37891-15.59864,56.40118,56.40118,0,0,1,3.43653-20.49023,31.94858,31.94858,0,0,1,9.915-13.94629A23.88871,23.88871,0,0,1,1039.33755,324.43848Zm9.78223,14.80566a16.13264,16.13264,0,0,0-1.25586-6.874,8.2701,8.2701,0,0,0-3.63574-3.89942,12.98022,12.98022,0,0,0-6.08106-1.25586,16.06042,16.06042,0,0,0-9.71582,3.3711q-4.56006,3.37061-7.46875,10.6416-2.90918,7.27149-3.30468,18.90332l14.01269-3.96582a53.88336,53.88336,0,0,0,9.71582-3.76758,14.38252,14.38252,0,0,0,5.81641-5.22168A15.12,15.12,0,0,0,1049.11978,339.24414Z" transform="translate(0 -44.38818)"/><path class="cls-1" d="M1137.60276,349.67462a18.98023,18.98023,0,0,1,4.2114-5.93185c3.86366-3.30777,8.54084-4.15754,13.374-4.5081,1.89613-.13754,3.809-.05526,5.71419-.0496.48661.00145,1.18477-.19456,1.14457.65995-.02582.549.36806,1.28666-.426,1.60009-2.92007,1.15256-3.66543,3.9031-4.69631,6.40967-1.3739,3.34059-2.59676,6.76324-6.59113,7.93851.47047.66951,1.10661.62247,1.67326.76193,4.6357,1.14089,7.3677,3.98931,7.80687,8.12568.47909,4.51245-1.71136,8.20921-6.07637,10.2549a14.33564,14.33564,0,0,1-16.96009-3.93749c-.45961-.57045-1.1-1.05035-.13523-1.85225.83732-.69595,1.21437-.3185,1.84467.24254,3.33951,2.97252,7.01044,3.5822,10.49934,1.8265,3.37053-1.69612,5.12072-5.47771,3.95423-8.54378-1.13582-2.98545-4.78919-4.54575-8.44837-3.60048a19.58354,19.58354,0,0,0-7.97289,4.72611,35.01286,35.01286,0,0,1-19.10575,9.01966c-6.78191.82792-12.72635-1.18629-17.05363-6.67371-3.78205-4.796-4.11855-10.27451-1.89324-15.78164,2.66637-6.59862,9.45348-10.90126,17.71819-11.18038.70526-.02382,1.38489-.07805,1.33678,1.00824-.0342.772-.07977,1.26878-1.06652,1.32846a15.14483,15.14483,0,0,0-3.12984.59409c-6.05909,1.69551-9.54537,6.423-9.54712,12.88616-.00184,6.806,4.162,12.57237,10.31639,14.28669a18.64353,18.64353,0,0,0,19.18777-6.55591c2.53718-3.41253,2.67122-7.46233.33744-10.11448a5.2,5.2,0,0,0-5.74144-1.79022,5.41439,5.41439,0,0,0-3.55473,5.11593,11.84074,11.84074,0,0,0,.096,1.36463c.061.73176-.52053.8404-1.00623,1.01277-.745.2644-.86378-.28117-1.05169-.80835a11.11082,11.11082,0,0,1,2.98922-11.1251,7.37145,7.37145,0,0,1,10.12778.671C1136.2164,347.81442,1136.82188,348.70292,1137.60276,349.67462Z" transform="translate(0 -44.38818)"/><path class="cls-2" d="M1138.90312,359.03384c-.92217-10.87711,5.54149-18.12916,15.46359-17.353-2.43868,2.14569-3.44289,4.93906-4.65721,7.61691C1147.56764,354.02112,1143.47756,356.56933,1138.90312,359.03384Z" transform="translate(0 -44.38818)"/><path class="cls-1" d="M461.42616,365.69837a18.98014,18.98014,0,0,1-4.2114,5.93184c-3.86366,3.30777-8.54084,4.15754-13.374,4.5081-1.89613.13754-3.809.05526-5.71419.0496-.48661-.00145-1.18477.19456-1.14457-.65995.02582-.549-.36806-1.28665.426-1.60009,2.92007-1.15256,3.66543-3.9031,4.69631-6.40967,1.3739-3.34059,2.59677-6.76324,6.59113-7.93851-.47047-.66951-1.10661-.62247-1.67326-.76192-4.6357-1.1409-7.3677-3.98932-7.80687-8.12568-.47908-4.51246,1.71136-8.20922,6.07637-10.25491a14.33564,14.33564,0,0,1,16.96009,3.93749c.45961.57046,1.1,1.05035.13523,1.85225-.83732.69595-1.21437.3185-1.84467-.24253-3.33951-2.97253-7.01043-3.58221-10.49934-1.82651-3.37053,1.69612-5.12072,5.47771-3.95423,8.54378,1.13582,2.98545,4.7892,4.54576,8.44837,3.60048a19.58343,19.58343,0,0,0,7.97289-4.72611,35.01286,35.01286,0,0,1,19.10575-9.01966c6.78192-.82792,12.72635,1.18629,17.05363,6.67371,3.78205,4.796,4.11855,10.27451,1.89324,15.78164-2.66637,6.59863-9.45348,10.90126-17.71819,11.18038-.70526.02382-1.38489.07805-1.33677-1.00823.03419-.772.07976-1.26879,1.06651-1.32847a15.14417,15.14417,0,0,0,3.12984-.59409c6.05909-1.69551,9.54537-6.423,9.54712-12.88616.00184-6.806-4.162-12.57237-10.31639-14.28669a18.64353,18.64353,0,0,0-19.18777,6.55591c-2.53718,3.41253-2.67122,7.46233-.33744,10.11448a5.2,5.2,0,0,0,5.74144,1.79023,5.4144,5.4144,0,0,0,3.55473-5.11594,11.8385,11.8385,0,0,0-.096-1.36463c-.061-.73176.52053-.84039,1.00624-1.01277.745-.2644.86377.28117,1.05169.80835a11.11083,11.11083,0,0,1-2.98923,11.1251,7.37145,7.37145,0,0,1-10.12778-.671C462.81252,367.55856,462.207,366.67006,461.42616,365.69837Z" transform="translate(0 -44.38818)"/><path class="cls-2" d="M460.1258,356.33914c.92217,10.87711-5.54149,18.12916-15.46359,17.353,2.43868-2.1457,3.44289-4.93907,4.65721-7.61692C451.46128,361.35186,455.55137,358.80365,460.1258,356.33914Z" transform="translate(0 -44.38818)"/><line class="cls-3" y1="113.645" x2="260.77314" y2="113.645"/><line class="cls-3" x1="1347.03226" y1="113.645" x2="1607.8054" y2="113.645"/></g></g></svg>