<svg xmlns="http://www.w3.org/2000/svg" viewBox="0 0 1562.14436 156.72412"><defs><style>.cls-1{fill:#111;}.cls-2{fill:#fdfdfd;}</style></defs><g id="Layer_2" data-name="Layer 2"><g id="Layer_1-2" data-name="Layer 1"><path d="M148.12381,130.94336a30.74587,30.74587,0,0,1-12.49707-10.21777,28.61344,28.61344,0,0,1-5.10888-14.30567H137.906a26.72808,26.72808,0,0,0,8.09522,15.40528q6.83862,6.76172,20.82861,6.75976a31.80073,31.80073,0,0,0,14.22607-2.98633,22.67022,22.67022,0,0,0,9.35352-8.1748,20.93606,20.93606,0,0,0,3.30078-11.47559q0-8.01708-3.85107-12.73242a23.92152,23.92152,0,0,0-9.58887-7.07422,139.80529,139.80529,0,0,0-15.48389-5.03027,124.53245,124.53245,0,0,1-17.21289-5.65918,27.29964,27.29964,0,0,1-11.0039-8.72363q-4.48023-5.896-4.48-16.1128a26.18262,26.18262,0,0,1,4.16553-14.3833A28.60594,28.60594,0,0,1,148.12381,25.936a39.88906,39.88906,0,0,1,17.7627-3.77295q14.61987,0,23.57959,7.23144a28.196,28.196,0,0,1,10.68945,17.76318h-7.54541a23.39689,23.39689,0,0,0-4.166-8.646,24.40184,24.40184,0,0,0-9.11719-7.30957,31.5122,31.5122,0,0,0-14.06885-2.9082q-11.00537,0-18.54931,6.05224a19.61485,19.61485,0,0,0-7.54541,16.11231q0,8.01634,3.93017,12.811A24.85494,24.85494,0,0,0,152.761,70.501a113.19917,113.19917,0,0,0,15.48389,4.95117,136.49269,136.49269,0,0,1,17.21289,5.73828A26.92342,26.92342,0,0,1,196.304,89.83594q4.48023,5.89452,4.48047,15.95508a26.93591,26.93591,0,0,1-3.93018,13.99121,29.50424,29.50424,0,0,1-11.55371,10.76757q-7.6267,4.16748-18.4707,4.166A43.50619,43.50619,0,0,1,148.12381,130.94336Z" transform="translate(0 -16.97607)"/><path d="M263.346,133.61523l-37.25537-39.1416v39.1416h-7.07373V17.29h7.07373V86.92773l36.62647-38.66992h9.90332L231.27811,90.7002l41.814,42.915Z" transform="translate(0 -16.97607)"/><path d="M351.37479,48.25781,301.701,173.7002H294.47l15.877-40.085L274.50614,48.25781h7.70264l32.06787,77.49805,29.86718-77.49805Z" transform="translate(0 -16.97607)"/><path d="M371.17948,17.29V133.61523h-7.07373V17.29Z" transform="translate(0 -16.97607)"/><path d="M393.50028,27.58643a5.89443,5.89443,0,0,1-1.729-4.48,5.95958,5.95958,0,0,1,1.729-4.40137,6.07408,6.07408,0,0,1,8.48877,0,5.96913,5.96913,0,0,1,1.729,4.40137,6.06017,6.06017,0,0,1-10.21777,4.48Zm7.70264,20.67138v85.35742h-7.07373V48.25781Z" transform="translate(0 -16.97607)"/><path d="M487.50223,55.88184q9.58594,9.35448,9.58887,27.74511v49.98828h-6.917V84.09863q0-15.24609-7.70215-23.34375-7.70435-8.094-20.90723-8.0957-13.83471,0-22.08593,8.80273-8.25294,8.80518-8.25293,26.09473v46.05859h-7.07374V48.25781h7.07374V66.335A28.35722,28.35722,0,0,1,443.25126,51.6377a36.654,36.654,0,0,1,19.41357-5.10889Q477.91092,46.52881,487.50223,55.88184Z" transform="translate(0 -16.97607)"/><path d="M595.65018,93.6875H521.92557q.31275,11.47558,5.03028,19.335a30.45789,30.45789,0,0,0,12.41845,11.79,36.45849,36.45849,0,0,0,16.81983,3.92969q12.57422,0,21.06445-6.209a26.8987,26.8987,0,0,0,10.689-16.89941h7.38818a34.16464,34.16464,0,0,1-12.88965,21.14355q-10.37549,8.09766-26.252,8.09571a42.58844,42.58844,0,0,1-21.37842-5.34473,37.52059,37.52059,0,0,1-14.77686-15.32715q-5.34521-9.98-5.34423-23.34375,0-13.35937,5.26611-23.26465a36.6446,36.6446,0,0,1,14.69775-15.16943,43.42577,43.42577,0,0,1,21.53565-5.26563q12.26146,0,21.30029,5.26563a35.645,35.645,0,0,1,13.75439,13.99072,38.89581,38.89581,0,0,1,4.71582,18.78418A84.001,84.001,0,0,1,595.65018,93.6875ZM584.8826,68.69336a28.52266,28.52266,0,0,0-12.1831-11.71094,36.74766,36.74766,0,0,0-16.6626-3.85156,36.258,36.258,0,0,0-16.584,3.85156,30.57818,30.57818,0,0,0-12.41846,11.71094q-4.79736,7.86181-5.10889,19.17773H588.8909Q589.36259,76.55226,584.8826,68.69336Z" transform="translate(0 -16.97607)"/><path d="M718.263,105.31934H665.91678l-10.53222,28.29589h-7.70264L688.23856,25.77881h7.85986l40.39942,107.83642H728.7952Zm-2.20068-5.97266-23.894-64.29346L668.11747,99.34668Z" transform="translate(0 -16.97607)"/><path d="M752.13846,67.75A37.29278,37.29278,0,0,1,766.7576,52.502a42.16914,42.16914,0,0,1,21.29981-5.34424q13.04589,0,22.63623,6.52344a35.17994,35.17994,0,0,1,13.519,16.89795V17.29h7.07324V133.61523h-7.07324V110.97852a35.28326,35.28326,0,0,1-13.20459,17.21386q-9.4314,6.68262-22.95068,6.68067a41.66582,41.66582,0,0,1-21.29981-5.42383A37.68923,37.68923,0,0,1,752.13846,114.044q-5.269-9.98-5.26611-23.18653Q746.87235,77.65332,752.13846,67.75Zm67.437,3.37988A33.07986,33.07986,0,0,0,806.92118,57.9248a35.15842,35.15842,0,0,0-17.92041-4.63671,36.184,36.184,0,0,0-18.23487,4.47949,30.87171,30.87171,0,0,0-12.26123,12.96875q-4.40258,8.48877-4.40136,20.12109,0,11.63526,4.40136,20.1211a31.23226,31.23226,0,0,0,12.33985,13.04785,37.83383,37.83383,0,0,0,36.15527-.0791,32.37329,32.37329,0,0,0,12.6543-13.20411,41.71955,41.71955,0,0,0,4.55859-19.88574A40.82078,40.82078,0,0,0,819.57547,71.12988Z" transform="translate(0 -16.97607)"/><path d="M926.23124,48.25781v85.35742H919.157v-18.5498a28.31186,28.31186,0,0,1-12.02539,14.85547,36.33756,36.33756,0,0,1-19.25684,5.10937q-15.249,0-24.915-9.35351-9.668-9.3501-9.668-27.74512V48.25781h6.917V97.46q0,15.249,7.70214,23.34375,7.70069,8.09766,20.90723,8.0957,13.83105,0,22.08594-8.80273,8.25293-8.80224,8.25293-26.09473V48.25781Z" transform="translate(0 -16.97607)"/><path d="M956.09549,17.29V133.61523h-7.07324V17.29Z" transform="translate(0 -16.97607)"/><path d="M989.57694,54.38867v56.43262q0,9.43213,3.458,12.96875,3.457,3.5376,12.26172,3.53711h9.58886v6.28808h-10.68945q-11.16357,0-16.42676-5.26562-5.269-5.26611-5.2666-17.52832V54.38867H969.61307V48.25781h12.88965V26.56494h7.07422V48.25781h25.30859v6.13086Z" transform="translate(0 -16.97607)"/><path d="M1074.38163,49.437a50.77385,50.77385,0,0,1,18.86425-20.04248,51.30347,51.30347,0,0,1,26.959-7.23144q18.86279,0,31.75293,8.80322,12.8877,8.80518,18.86426,24.6792h-8.17481a40.3595,40.3595,0,0,0-15.64062-19.88477q-10.92774-7.30956-26.80176-7.30957a45.03084,45.03084,0,0,0-23.1084,6.05225,42.48977,42.48977,0,0,0-16.34863,17.44873q-5.9751,11.39795-5.97266,26.64453,0,15.09082,5.97266,26.33008a43.24681,43.24681,0,0,0,16.34863,17.37012,44.57213,44.57213,0,0,0,23.1084,6.13085q15.876,0,26.80176-7.30957a40.34693,40.34693,0,0,0,15.64062-19.88574h8.17481q-5.97657,15.87891-18.86426,24.68067-12.89062,8.80517-31.75293,8.80273a51.71009,51.71009,0,0,1-26.959-7.15234,50.19522,50.19522,0,0,1-18.86425-19.96485,60.61669,60.61669,0,0,1-6.83789-29.00195Q1067.54374,62.249,1074.38163,49.437Z" transform="translate(0 -16.97607)"/><path d="M1190.86307,67.75a37.29271,37.29271,0,0,1,14.61914-15.248,42.17041,42.17041,0,0,1,21.29981-5.34424q13.51758,0,22.95117,6.60206a35.04523,35.04523,0,0,1,13.2041,16.81933V48.25781h7.07324v85.35742h-7.07324V111.13574a35.22582,35.22582,0,0,1-13.2832,17.05664q-9.5127,6.68262-22.87207,6.68067a41.66706,41.66706,0,0,1-21.29981-5.42383,37.68917,37.68917,0,0,1-14.61914-15.40527q-5.269-9.98-5.2666-23.18653Q1185.59647,77.65332,1190.86307,67.75Zm67.43653,3.37988a33.07017,33.07017,0,0,0-12.6543-13.20508,35.15534,35.15534,0,0,0-17.91992-4.63671,36.17823,36.17823,0,0,0-18.23438,4.47949,30.86975,30.86975,0,0,0-12.26172,12.96875q-4.40331,8.48877-4.40136,20.12109,0,11.63526,4.40136,20.1211a31.23226,31.23226,0,0,0,12.33985,13.04785,37.83383,37.83383,0,0,0,36.15527-.0791,32.37024,32.37024,0,0,0,12.6543-13.20411,41.71955,41.71955,0,0,0,4.55859-19.88574A40.81554,40.81554,0,0,0,1258.2996,71.12988Z" transform="translate(0 -16.97607)"/><path d="M1311.0369,51.48047q8.0171-4.9519,20.43555-4.95166V53.917h-2.3584q-12.57715,0-20.90723,7.15235-8.33349,7.1543-8.33105,23.34375v49.20214h-7.07422V48.25781h7.07422V65.86328A25.93709,25.93709,0,0,1,1311.0369,51.48047Z" transform="translate(0 -16.97607)"/><path d="M1421.38651,93.6875H1347.6619q.31347,11.47558,5.03027,19.335a30.4598,30.4598,0,0,0,12.418,11.79,36.46192,36.46192,0,0,0,16.82032,3.92969q12.57422,0,21.06445-6.209a26.89733,26.89733,0,0,0,10.68945-16.89941h7.3877a34.16894,34.16894,0,0,1-12.88965,21.14355q-10.37549,8.09766-26.25195,8.09571a42.59023,42.59023,0,0,1-21.37891-5.34473,37.52561,37.52561,0,0,1-14.77637-15.32715q-5.34521-9.98-5.34472-23.34375,0-13.35937,5.2666-23.26465a36.64936,36.64936,0,0,1,14.69726-15.16943,43.42765,43.42765,0,0,1,21.53614-5.26563q12.26073,0,21.2998,5.26563a35.63973,35.63973,0,0,1,13.75488,13.99072,38.90129,38.90129,0,0,1,4.71582,18.78418A84.004,84.004,0,0,1,1421.38651,93.6875Zm-10.76758-24.99414a28.52961,28.52961,0,0,0-12.18262-11.71094,36.74967,36.74967,0,0,0-16.66308-3.85156,36.25957,36.25957,0,0,0-16.584,3.85156,30.58849,30.58849,0,0,0-12.41894,11.71094q-4.7959,7.86181-5.1084,19.17773h66.96484Q1415.09843,76.55226,1410.61893,68.69336Z" transform="translate(0 -16.97607)"/><path class="cls-1" d="M1537.15194,84.309a19.34633,19.34633,0,0,1,4.29266-6.0463c3.93821-3.37159,8.70563-4.23776,13.632-4.59509,1.93271-.14019,3.88249-.05632,5.82444-.05055.496.00148,1.20764-.19831,1.16666.67268-.02632.55958.37516,1.31148-.43426,1.631-2.97642,1.1748-3.73616,3.9784-4.78693,6.53334-1.40041,3.40505-2.64687,6.89373-6.7183,8.09168.47955.68243,1.128.63448,1.70554.77663,4.72515,1.16291,7.50986,4.06629,7.9575,8.28246.48834,4.59953-1.74437,8.36762-6.19361,10.45278a14.61226,14.61226,0,0,1-17.28733-4.01346c-.46848-.58147-1.12124-1.07062-.13784-1.888.85348-.70937,1.2378-.32464,1.88026.24722,3.40395,3.02988,7.1457,3.65132,10.70193,1.86175,3.43556-1.72885,5.21952-5.5834,4.03052-8.70863-1.15773-3.04306-4.8816-4.63347-8.61138-3.67a19.96131,19.96131,0,0,0-8.12673,4.81731,35.68853,35.68853,0,0,1-19.47439,9.19369c-6.91277.8439-12.9719-1.20918-17.38268-6.80248-3.855-4.88855-4.198-10.47276-1.92977-16.08615,2.71782-6.72594,9.63589-11.1116,18.06007-11.39611.71886-.02428,1.41161-.07955,1.36256,1.0277-.03486.78692-.0813,1.29327-1.08709,1.3541a15.43616,15.43616,0,0,0-3.19024.60555c-6.176,1.72822-9.72954,6.54691-9.73132,13.13479-.00188,6.93735,4.24233,12.815,10.51544,14.56235a19.00324,19.00324,0,0,0,19.558-6.6824c2.58613-3.47837,2.72276-7.60632.34395-10.30964a5.30032,5.30032,0,0,0-5.85222-1.82477,5.51887,5.51887,0,0,0-3.62332,5.21465,12.06964,12.06964,0,0,0,.09783,1.391c.06214.74588-.53057.85661-1.02565,1.03231-.75936.2695-.88044-.28659-1.072-.82394a11.32519,11.32519,0,0,1,3.0469-11.33976,7.51366,7.51366,0,0,1,10.32319.684C1535.73883,82.41292,1536.356,83.31857,1537.15194,84.309Z" transform="translate(0 -16.97607)"/><path class="cls-2" d="M1538.47739,93.84882c-.94-11.087,5.64842-18.479,15.762-17.68778-2.48573,2.1871-3.50932,5.03437-4.74707,7.76389C1547.30909,88.73938,1543.14009,91.33675,1538.47739,93.84882Z" transform="translate(0 -16.97607)"/><path class="cls-1" d="M24.99243,100.64194a19.34661,19.34661,0,0,1-4.29266,6.04629c-3.93822,3.3716-8.70564,4.23776-13.632,4.59509-1.93271.14019-3.88249.05633-5.82444.05055-.496-.00147-1.20763.19832-1.16666-.67268.02632-.55958-.37516-1.31148.43426-1.631,2.97642-1.1748,3.73616-3.97841,4.78693-6.53334,1.40041-3.40506,2.64687-6.89374,6.7183-8.09168-.47954-.68243-1.128-.63449-1.70554-.77664-4.72515-1.1629-7.50986-4.06629-7.9575-8.28246-.48833-4.59952,1.74438-8.36762,6.19361-10.45277A14.61223,14.61223,0,0,1,25.83405,78.9068c.46849.58146,1.12125,1.07061.13785,1.888-.85348.70938-1.2378.32465-1.88027-.24722-3.40395-3.02988-7.1457-3.65132-10.70193-1.86175-3.43556,1.72886-5.21952,5.58341-4.03052,8.70864,1.15774,3.04305,4.8816,4.63347,8.61138,3.67a19.96153,19.96153,0,0,0,8.12673-4.81731,35.68846,35.68846,0,0,1,19.47439-9.19369c6.91278-.8439,12.97191,1.20917,17.38268,6.80247,3.855,4.88855,4.198,10.47277,1.92977,16.08615-2.71782,6.72595-9.63588,11.1116-18.06006,11.39611-.71886.02428-1.41161.07956-1.36257-1.02769.03486-.78693.0813-1.29327,1.0871-1.3541a15.43609,15.43609,0,0,0,3.19023-.60556c6.176-1.72822,9.72954-6.5469,9.73133-13.13479.00188-6.93735-4.24233-12.81495-10.51545-14.56235a19.00324,19.00324,0,0,0-19.558,6.6824c-2.58614,3.47838-2.72277,7.60632-.344,10.30964A5.30033,5.30033,0,0,0,34.905,99.47047a5.51885,5.51885,0,0,0,3.62331-5.21465,12.06723,12.06723,0,0,0-.09783-1.391c-.06214-.74589.53058-.85662,1.02565-1.03232.75936-.2695.88045.2866,1.072.82395a11.3252,11.3252,0,0,1-3.0469,11.33976,7.51367,7.51367,0,0,1-10.32319-.684C26.40553,102.538,25.78837,101.63238,24.99243,100.64194Z" transform="translate(0 -16.97607)"/><path class="cls-2" d="M23.667,91.10212c.94,11.087-5.64841,18.479-15.762,17.68779,2.48574-2.1871,3.50933-5.03437,4.74707-7.76389C14.83527,96.21156,19.00427,93.61419,23.667,91.10212Z" transform="translate(0 -16.97607)"/></g></g></svg>